<svg data-v-fde0c5aa="" xmlns="http://www.w3.org/2000/svg" viewBox="0 0 300 300" class="font"><!----><defs data-v-fde0c5aa=""><!----></defs><rect data-v-fde0c5aa="" fill="#EDF9F6" x="0" y="0" width="300px" height="300px" class="logo-background-square"></rect><defs data-v-fde0c5aa=""><linearGradient data-v-fde0c5aa="" gradientTransform="rotate(25)" id="02041f24-c981-4acb-a8b3-432f28558354" x1="0%" y1="0%" x2="100%" y2="0%"><stop data-v-fde0c5aa="" offset="0%" stop-color="#288642" stop-opacity="1"></stop><stop data-v-fde0c5aa="" offset="100%" stop-color="#27FDFD" stop-opacity="1"></stop></linearGradient></defs><g data-v-fde0c5aa="" id="25bc30dd-c905-40ed-a4bb-6140d0f60758" fill="url(#02041f24-c981-4acb-a8b3-432f28558354)" transform="matrix(2.754821178765442,0,0,2.754821178765442,38.87052332655818,124.0495849426539)"><path d="M0.41 4.32L0.41 3.64L0.41 3.64Q0.64 3.64 0.89 3.65L0.89 3.65L0.89 3.65Q1.14 3.65 1.41 3.65L1.41 3.65L1.41 3.65Q1.67 3.65 1.94 3.65L1.94 3.65L1.94 3.65Q2.21 3.66 2.45 3.66L2.45 3.66L2.45 3.66Q2.48 3.66 2.67 3.65L2.67 3.65L2.67 3.65Q2.85 3.65 3.09 3.65L3.09 3.65L3.09 3.65Q3.33 3.65 3.57 3.65L3.57 3.65L3.57 3.65Q3.81 3.64 3.96 3.64L3.96 3.64L3.96 4.32L3.64 4.32L3.64 4.32Q3.32 4.32 3.15 4.34L3.15 4.34L3.15 4.34Q2.99 4.37 2.91 4.43L2.91 4.43L2.91 4.43Q2.83 4.48 2.82 4.58L2.82 4.58L2.82 4.58Q2.80 4.68 2.80 4.82L2.80 4.82L2.80 7.51L7.38 7.51L7.38 4.76L7.38 4.76Q7.38 4.60 7.34 4.51L7.34 4.51L7.34 4.51Q7.30 4.42 7.20 4.38L7.20 4.38L7.20 4.38Q7.10 4.33 6.94 4.33L6.94 4.33L6.94 4.33Q6.78 4.32 6.54 4.32L6.54 4.32L6.21 4.32L6.21 3.64L6.21 3.64Q6.71 3.66 7.19 3.66L7.19 3.66L7.19 3.66Q7.68 3.66 8.11 3.66L8.11 3.66L8.11 3.66Q8.14 3.66 8.34 3.65L8.34 3.65L8.34 3.65Q8.54 3.65 8.80 3.65L8.80 3.65L8.80 3.65Q9.06 3.65 9.33 3.65L9.33 3.65L9.33 3.65Q9.60 3.64 9.77 3.64L9.77 3.64L9.77 4.32L9.45 4.32L9.45 4.32Q9.14 4.32 8.97 4.34L8.97 4.34L8.97 4.34Q8.80 4.37 8.73 4.42L8.73 4.42L8.73 4.42Q8.65 4.48 8.63 4.56L8.63 4.56L8.63 4.56Q8.62 4.64 8.62 4.76L8.62 4.76L8.62 11.21L8.62 11.21Q8.62 11.27 8.62 11.32L8.62 11.32L8.62 11.32Q8.61 11.37 8.61 11.42L8.61 11.42L8.61 11.42Q8.61 11.51 8.64 11.58L8.64 11.58L8.64 11.58Q8.66 11.65 8.75 11.70L8.75 11.70L8.75 11.70Q8.83 11.74 9.00 11.76L9.00 11.76L9.00 11.76Q9.16 11.79 9.45 11.79L9.45 11.79L9.77 11.79L9.77 12.46L9.77 12.46Q9.54 12.46 9.32 12.46L9.32 12.46L9.32 12.46Q9.11 12.46 8.88 12.46L8.88 12.46L8.88 12.46Q8.65 12.46 8.39 12.45L8.39 12.45L8.39 12.45Q8.14 12.45 7.83 12.45L7.83 12.45L7.83 12.45Q7.57 12.45 7.36 12.45L7.36 12.45L7.36 12.45Q7.14 12.46 6.94 12.46L6.94 12.46L6.94 12.46Q6.75 12.46 6.57 12.46L6.57 12.46L6.57 12.46Q6.39 12.46 6.21 12.46L6.21 12.46L6.21 11.79L6.54 11.79L6.54 11.79Q6.84 11.79 7.01 11.75L7.01 11.75L7.01 11.75Q7.18 11.71 7.27 11.64L7.27 11.64L7.27 11.64Q7.35 11.57 7.36 11.47L7.36 11.47L7.36 11.47Q7.38 11.37 7.38 11.24L7.38 11.24L7.38 8.24L2.80 8.24L2.80 11.28L2.80 11.28Q2.80 11.48 2.84 11.58L2.84 11.58L2.84 11.58Q2.87 11.68 2.96 11.73L2.96 11.73L2.96 11.73Q3.06 11.78 3.22 11.78L3.22 11.78L3.22 11.78Q3.38 11.79 3.64 11.79L3.64 11.79L3.96 11.79L3.96 12.46L3.96 12.46Q3.77 12.46 3.60 12.46L3.60 12.46L3.60 12.46Q3.42 12.46 3.23 12.46L3.23 12.46L3.23 12.46Q3.04 12.46 2.82 12.45L2.82 12.45L2.82 12.45Q2.60 12.45 2.34 12.45L2.34 12.45L2.34 12.45Q2.03 12.45 1.77 12.45L1.77 12.45L1.77 12.45Q1.52 12.46 1.29 12.46L1.29 12.46L1.29 12.46Q1.07 12.46 0.85 12.46L0.85 12.46L0.85 12.46Q0.64 12.46 0.41 12.46L0.41 12.46L0.41 11.79L0.73 11.79L0.73 11.79Q1.04 11.79 1.21 11.74L1.21 11.74L1.21 11.74Q1.38 11.70 1.46 11.63L1.46 11.63L1.46 11.63Q1.53 11.56 1.54 11.46L1.54 11.46L1.54 11.46Q1.56 11.37 1.56 11.25L1.56 11.25L1.56 4.74L1.56 4.74Q1.56 4.63 1.54 4.55L1.54 4.55L1.54 4.55Q1.53 4.46 1.45 4.41L1.45 4.41L1.45 4.41Q1.37 4.36 1.21 4.34L1.21 4.34L1.21 4.34Q1.04 4.32 0.73 4.32L0.73 4.32L0.41 4.32ZM13.41 12.61L13.41 12.61L13.41 12.61Q12.76 12.61 12.37 12.41L12.37 12.41L12.37 12.41Q11.98 12.21 11.77 11.82L11.77 11.82L11.77 11.82Q11.56 11.44 11.49 10.87L11.49 10.87L11.49 10.87Q11.43 10.31 11.43 9.58L11.43 9.58L11.43 7.41L11.43 7.41Q11.43 7.24 11.40 7.14L11.40 7.14L11.40 7.14Q11.37 7.05 11.27 7.01L11.27 7.01L11.27 7.01Q11.16 6.97 10.97 6.96L10.97 6.96L10.97 6.96Q10.77 6.95 10.45 6.95L10.45 6.95L10.45 6.36L10.45 6.36Q10.75 6.36 11.01 6.36L11.01 6.36L11.01 6.36Q11.27 6.36 11.52 6.35L11.52 6.35L11.52 6.35Q11.77 6.35 12.03 6.34L12.03 6.34L12.03 6.34Q12.28 6.33 12.58 6.32L12.58 6.32L12.58 9.93L12.58 9.93Q12.58 10.36 12.62 10.73L12.62 10.73L12.62 10.73Q12.65 11.09 12.78 11.35L12.78 11.35L12.78 11.35Q12.91 11.61 13.14 11.75L13.14 11.75L13.14 11.75Q13.38 11.89 13.77 11.89L13.77 11.89L13.77 11.89Q14.14 11.89 14.45 11.81L14.45 11.81L14.45 11.81Q14.77 11.73 15.02 11.58L15.02 11.58L15.02 11.58Q15.27 11.44 15.46 11.23L15.46 11.23L15.46 11.23Q15.65 11.03 15.78 10.81L15.78 10.81L15.78 10.81Q15.80 10.55 15.80 10.31L15.80 10.31L15.80 10.31Q15.80 10.06 15.80 9.80L15.80 9.80L15.80 7.44L15.80 7.44Q15.80 7.26 15.77 7.16L15.77 7.16L15.77 7.16Q15.74 7.06 15.63 7.01L15.63 7.01L15.63 7.01Q15.52 6.97 15.33 6.96L15.33 6.96L15.33 6.96Q15.13 6.95 14.79 6.95L14.79 6.95L14.79 6.36L14.79 6.36Q15.31 6.36 15.86 6.35L15.86 6.35L15.86 6.35Q16.40 6.34 16.95 6.31L16.95 6.31L16.95 11.50L16.95 11.50Q16.95 11.63 16.98 11.70L16.98 11.70L16.98 11.70Q17.01 11.77 17.12 11.81L17.12 11.81L17.12 11.81Q17.23 11.84 17.42 11.85L17.42 11.85L17.42 11.85Q17.61 11.85 17.92 11.85L17.92 11.85L17.92 12.46L17.92 12.46Q17.31 12.46 16.81 12.47L16.81 12.47L16.81 12.47Q16.31 12.48 15.85 12.49L15.85 12.49L15.85 11.57L15.85 11.57Q15.37 12.09 14.75 12.35L14.75 12.35L14.75 12.35Q14.13 12.61 13.41 12.61ZM25.16 9.49L24.75 9.61L19.91 9.61L19.91 9.61Q19.91 10.16 20.08 10.58L20.08 10.58L20.08 10.58Q20.24 10.99 20.54 11.28L20.54 11.28L20.54 11.28Q20.84 11.57 21.26 11.73L21.26 11.73L21.26 11.73Q21.68 11.89 22.20 11.89L22.20 11.89L22.20 11.89Q22.91 11.89 23.44 11.59L23.44 11.59L23.44 11.59Q23.97 11.30 24.25 10.68L24.25 10.68L25.08 10.81L25.08 10.81Q24.77 11.68 23.98 12.14L23.98 12.14L23.98 12.14Q23.19 12.61 22.04 12.61L22.04 12.61L22.04 12.61Q21.27 12.61 20.65 12.37L20.65 12.37L20.65 12.37Q20.04 12.14 19.61 11.72L19.61 11.72L19.61 11.72Q19.18 11.29 18.96 10.72L18.96 10.72L18.96 10.72Q18.73 10.15 18.73 9.42L18.73 9.42L18.73 9.42Q18.73 8.68 18.96 8.09L18.96 8.09L18.96 8.09Q19.20 7.50 19.62 7.08L19.62 7.08L19.62 7.08Q20.04 6.65 20.64 6.42L20.64 6.42L20.64 6.42Q21.24 6.19 21.97 6.19L21.97 6.19L21.97 6.19Q22.71 6.19 23.30 6.41L23.30 6.41L23.30 6.41Q23.88 6.63 24.29 7.05L24.29 7.05L24.29 7.05Q24.71 7.48 24.93 8.09L24.93 8.09L24.93 8.09Q25.15 8.70 25.16 9.49L25.16 9.49ZM19.91 9.00L24.05 9.00L24.05 9.00Q23.97 7.96 23.43 7.43L23.43 7.43L23.43 7.43Q22.90 6.90 21.98 6.90L21.98 6.90L21.98 6.90Q21.55 6.90 21.20 7.04L21.20 7.04L21.20 7.04Q20.84 7.19 20.58 7.45L20.58 7.45L20.58 7.45Q20.31 7.72 20.14 8.10L20.14 8.10L20.14 8.10Q19.97 8.48 19.91 9.00L19.91 9.00ZM29.74 3.64L33.29 3.64L33.29 3.64Q34.27 3.64 34.94 3.79L34.94 3.79L34.94 3.79Q35.60 3.94 36.01 4.22L36.01 4.22L36.01 4.22Q36.42 4.50 36.59 4.91L36.59 4.91L36.59 4.91Q36.76 5.33 36.76 5.87L36.76 5.87L36.76 5.87Q36.76 7.34 35.19 7.83L35.19 7.83L35.19 7.83Q36.17 8.05 36.66 8.61L36.66 8.61L36.66 8.61Q37.15 9.16 37.15 10.04L37.15 10.04L37.15 10.04Q37.15 10.53 36.99 10.98L36.99 10.98L36.99 10.98Q36.83 11.42 36.44 11.75L36.44 11.75L36.44 11.75Q36.05 12.08 35.40 12.27L35.40 12.27L35.40 12.27Q34.76 12.46 33.81 12.46L33.81 12.46L29.74 12.46L29.74 11.79L30.17 11.79L30.17 11.79Q30.45 11.79 30.60 11.75L30.60 11.75L30.60 11.75Q30.75 11.71 30.82 11.64L30.82 11.64L30.82 11.64Q30.89 11.57 30.90 11.48L30.90 11.48L30.90 11.48Q30.91 11.39 30.91 11.28L30.91 11.28L30.91 4.78L30.91 4.78Q30.91 4.64 30.88 4.55L30.88 4.55L30.88 4.55Q30.86 4.46 30.74 4.41L30.74 4.41L30.74 4.41Q30.62 4.36 30.38 4.34L30.38 4.34L30.38 4.34Q30.15 4.32 29.74 4.32L29.74 4.32L29.74 3.64ZM32.16 4.38L32.16 7.55L33.54 7.55L33.54 7.55Q34.02 7.55 34.40 7.44L34.40 7.44L34.40 7.44Q34.77 7.33 35.03 7.12L35.03 7.12L35.03 7.12Q35.28 6.90 35.41 6.61L35.41 6.61L35.41 6.61Q35.54 6.31 35.54 5.94L35.54 5.94L35.54 5.94Q35.54 5.61 35.43 5.33L35.43 5.33L35.43 5.33Q35.32 5.04 35.08 4.83L35.08 4.83L35.08 4.83Q34.83 4.62 34.43 4.50L34.43 4.50L34.43 4.50Q34.03 4.38 33.46 4.38L33.46 4.38L32.16 4.38ZM32.16 8.23L32.16 11.72L33.61 11.72L33.61 11.72Q34.77 11.72 35.33 11.27L35.33 11.27L35.33 11.27Q35.88 10.81 35.88 10.03L35.88 10.03L35.88 10.03Q35.88 9.56 35.72 9.22L35.72 9.22L35.72 9.22Q35.57 8.88 35.23 8.66L35.23 8.66L35.23 8.66Q34.90 8.44 34.37 8.33L34.37 8.33L34.37 8.33Q33.85 8.23 33.12 8.23L33.12 8.23L32.16 8.23ZM43.93 8.37L43.93 10.93L43.93 10.93Q43.93 11.29 43.95 11.47L43.95 11.47L43.95 11.47Q43.98 11.66 44.04 11.75L44.04 11.75L44.04 11.75Q44.11 11.83 44.24 11.84L44.24 11.84L44.24 11.84Q44.37 11.85 44.57 11.85L44.57 11.85L44.88 11.85L44.88 12.46L44.88 12.46Q44.34 12.46 43.81 12.47L43.81 12.47L43.81 12.47Q43.28 12.48 42.82 12.49L42.82 12.49L42.82 11.55L42.82 11.55Q42.41 12.08 41.85 12.34L41.85 12.34L41.85 12.34Q41.28 12.61 40.53 12.61L40.53 12.61L40.53 12.61Q40.04 12.61 39.64 12.47L39.64 12.47L39.64 12.47Q39.25 12.33 38.96 12.08L38.96 12.08L38.96 12.08Q38.68 11.83 38.53 11.49L38.53 11.49L38.53 11.49Q38.38 11.15 38.38 10.74L38.38 10.74L38.38 10.74Q38.38 10.30 38.55 9.94L38.55 9.94L38.55 9.94Q38.73 9.58 39.07 9.33L39.07 9.33L39.07 9.33Q39.42 9.08 39.90 8.94L39.90 8.94L39.90 8.94Q40.39 8.80 41.02 8.80L41.02 8.80L41.02 8.80Q41.45 8.80 41.89 8.86L41.89 8.86L41.89 8.86Q42.33 8.93 42.78 9.04L42.78 9.04L42.78 8.06L42.78 8.06Q42.78 7.44 42.37 7.11L42.37 7.11L42.37 7.11Q41.95 6.78 41.10 6.78L41.10 6.78L41.10 6.78Q40.38 6.78 39.97 7.06L39.97 7.06L39.97 7.06Q39.57 7.33 39.43 7.92L39.43 7.92L38.80 7.84L38.89 6.64L38.89 6.64Q39.33 6.44 39.91 6.31L39.91 6.31L39.91 6.31Q40.50 6.19 41.23 6.19L41.23 6.19L41.23 6.19Q41.95 6.19 42.46 6.32L42.46 6.32L42.46 6.32Q42.98 6.45 43.30 6.71L43.30 6.71L43.30 6.71Q43.63 6.98 43.78 7.39L43.78 7.39L43.78 7.39Q43.93 7.81 43.93 8.37L43.93 8.37ZM41.28 9.37L41.28 9.37L41.28 9.37Q40.87 9.37 40.54 9.46L40.54 9.46L40.54 9.46Q40.22 9.56 39.99 9.73L39.99 9.73L39.99 9.73Q39.76 9.90 39.63 10.14L39.63 10.14L39.63 10.14Q39.51 10.39 39.51 10.71L39.51 10.71L39.51 10.71Q39.51 10.99 39.61 11.20L39.61 11.20L39.61 11.20Q39.71 11.42 39.89 11.57L39.89 11.57L39.89 11.57Q40.07 11.72 40.33 11.81L40.33 11.81L40.33 11.81Q40.58 11.89 40.88 11.89L40.88 11.89L40.88 11.89Q41.21 11.89 41.55 11.79L41.55 11.79L41.55 11.79Q41.88 11.68 42.16 11.49L42.16 11.49L42.16 11.49Q42.43 11.29 42.60 11.00L42.60 11.00L42.60 11.00Q42.78 10.70 42.78 10.28L42.78 10.28L42.78 9.61L42.78 9.61Q42.37 9.50 42 9.43L42 9.43L42 9.43Q41.63 9.37 41.28 9.37ZM45.29 12.46L45.29 11.85L45.29 11.85Q45.67 11.85 45.88 11.84L45.88 11.84L45.88 11.84Q46.09 11.83 46.20 11.79L46.20 11.79L46.20 11.79Q46.30 11.74 46.32 11.68L46.32 11.68L46.32 11.68Q46.34 11.61 46.34 11.50L46.34 11.50L46.34 7.18L46.34 7.18Q46.34 7.10 46.30 7.05L46.30 7.05L46.30 7.05Q46.25 7 46.14 6.98L46.14 6.98L46.14 6.98Q46.03 6.96 45.83 6.96L45.83 6.96L45.83 6.96Q45.64 6.95 45.32 6.95L45.32 6.95L45.32 6.34L45.32 6.34Q45.93 6.34 46.44 6.34L46.44 6.34L46.44 6.34Q46.96 6.33 47.45 6.31L47.45 6.31L47.45 7.27L47.45 7.27Q47.91 6.75 48.52 6.47L48.52 6.47L48.52 6.47Q49.12 6.19 49.81 6.19L49.81 6.19L49.81 6.19Q50.80 6.19 51.34 6.73L51.34 6.73L51.34 6.73Q51.87 7.27 51.87 8.43L51.87 8.43L51.87 11.57L51.87 11.57Q51.87 11.68 51.92 11.74L51.92 11.74L51.92 11.74Q51.97 11.79 52.08 11.82L52.08 11.82L52.08 11.82Q52.19 11.84 52.38 11.84L52.38 11.84L52.38 11.84Q52.56 11.85 52.83 11.85L52.83 11.85L52.83 12.46L52.83 12.46Q52.66 12.46 52.50 12.46L52.50 12.46L52.50 12.46Q52.34 12.46 52.17 12.46L52.17 12.46L52.17 12.46Q51.99 12.46 51.80 12.46L51.80 12.46L51.80 12.46Q51.60 12.46 51.37 12.45L51.37 12.45L51.37 12.45Q50.87 12.45 50.47 12.46L50.47 12.46L50.47 12.46Q50.07 12.46 49.68 12.46L49.68 12.46L49.68 11.85L49.68 11.85Q50.07 11.85 50.28 11.84L50.28 11.84L50.28 11.84Q50.49 11.83 50.59 11.79L50.59 11.79L50.59 11.79Q50.68 11.75 50.70 11.69L50.70 11.69L50.70 11.69Q50.72 11.63 50.72 11.54L50.72 11.54L50.72 8.83L50.72 8.83Q50.72 8.37 50.66 7.99L50.66 7.99L50.66 7.99Q50.61 7.62 50.47 7.38L50.47 7.38L50.47 7.38Q50.33 7.14 50.09 7.02L50.09 7.02L50.09 7.02Q49.85 6.90 49.46 6.90L49.46 6.90L49.46 6.90Q49.10 6.90 48.79 7.02L48.79 7.02L48.79 7.02Q48.48 7.14 48.24 7.30L48.24 7.30L48.24 7.30Q48.00 7.47 47.81 7.66L47.81 7.66L47.81 7.66Q47.63 7.85 47.50 8.01L47.50 8.01L47.50 8.01Q47.48 8.52 47.48 9.05L47.48 9.05L47.48 11.53L47.48 11.53Q47.48 11.66 47.54 11.72L47.54 11.72L47.54 11.72Q47.60 11.79 47.73 11.82L47.73 11.82L47.73 11.82Q47.85 11.85 48.05 11.85L48.05 11.85L48.05 11.85Q48.24 11.85 48.52 11.85L48.52 11.85L48.52 12.46L48.52 12.46Q48.34 12.46 48.17 12.46L48.17 12.46L48.17 12.46Q48.00 12.46 47.82 12.46L47.82 12.46L47.82 12.46Q47.64 12.46 47.43 12.46L47.43 12.46L47.43 12.46Q47.22 12.46 46.98 12.45L46.98 12.45L46.98 12.45Q46.46 12.45 46.07 12.46L46.07 12.46L46.07 12.46Q45.67 12.46 45.29 12.46L45.29 12.46ZM53.27 12.46L53.27 11.85L53.27 11.85Q53.55 11.85 53.75 11.84L53.75 11.84L53.75 11.84Q53.96 11.83 54.08 11.78L54.08 11.78L54.08 11.78Q54.21 11.74 54.26 11.65L54.26 11.65L54.26 11.65Q54.32 11.55 54.32 11.39L54.32 11.39L54.32 4.58L54.32 4.58Q54.32 4.45 54.26 4.39L54.26 4.39L54.26 4.39Q54.20 4.32 54.07 4.29L54.07 4.29L54.07 4.29Q53.94 4.26 53.75 4.25L53.75 4.25L53.75 4.25Q53.56 4.25 53.30 4.25L53.30 4.25L53.30 3.63L53.30 3.63Q53.67 3.63 53.96 3.63L53.96 3.63L53.96 3.63Q54.24 3.63 54.49 3.63L54.49 3.63L54.49 3.63Q54.74 3.62 54.97 3.62L54.97 3.62L54.97 3.62Q55.21 3.61 55.46 3.60L55.46 3.60L55.46 9.07L57.31 7.68L57.31 7.68Q58.00 7.19 58.00 7.05L58.00 7.05L58.00 7.05Q58.00 7.01 57.94 6.99L57.94 6.99L57.94 6.99Q57.89 6.97 57.79 6.96L57.79 6.96L57.79 6.96Q57.70 6.95 57.58 6.95L57.58 6.95L57.58 6.95Q57.45 6.95 57.31 6.95L57.31 6.95L57.33 6.34L57.33 6.34Q57.69 6.35 57.97 6.35L57.97 6.35L57.97 6.35Q58.24 6.36 58.47 6.36L58.47 6.36L58.47 6.36Q58.86 6.36 59.26 6.35L59.26 6.35L59.26 6.35Q59.66 6.35 60.18 6.34L60.18 6.34L60.18 6.95L60.18 6.95Q59.90 6.95 59.75 6.96L59.75 6.96L59.75 6.96Q59.59 6.97 59.44 7.03L59.44 7.03L59.44 7.03Q59.29 7.09 59.10 7.23L59.10 7.23L59.10 7.23Q58.90 7.36 58.54 7.63L58.54 7.63L56.62 9.05L59.29 11.50L59.29 11.50Q59.53 11.73 59.73 11.80L59.73 11.80L59.73 11.80Q59.92 11.86 60.15 11.86L60.15 11.86L60.15 11.86Q60.22 11.86 60.30 11.86L60.30 11.86L60.30 11.86Q60.38 11.85 60.47 11.85L60.47 11.85L60.47 12.46L60.47 12.46Q60.14 12.46 59.81 12.46L59.81 12.46L59.81 12.46Q59.48 12.45 59.10 12.45L59.10 12.45L59.10 12.45Q58.84 12.45 58.63 12.45L58.63 12.45L58.63 12.45Q58.41 12.46 58.21 12.46L58.21 12.46L58.21 12.46Q58.00 12.46 57.80 12.46L57.80 12.46L57.80 12.46Q57.60 12.46 57.39 12.46L57.39 12.46L57.39 11.85L57.39 11.85Q57.75 11.85 57.90 11.84L57.90 11.84L57.90 11.84Q58.06 11.83 58.06 11.74L58.06 11.74L58.06 11.74Q58.06 11.67 57.96 11.56L57.96 11.56L57.96 11.56Q57.86 11.46 57.70 11.31L57.70 11.31L55.75 9.52L55.46 9.71L55.45 11.40L55.45 11.40Q55.45 11.54 55.49 11.63L55.49 11.63L55.49 11.63Q55.54 11.72 55.65 11.77L55.65 11.77L55.65 11.77Q55.77 11.82 55.98 11.84L55.98 11.84L55.98 11.84Q56.18 11.85 56.53 11.85L56.53 11.85L56.53 12.46L56.53 12.46Q56.17 12.46 55.81 12.46L55.81 12.46L55.81 12.46Q55.44 12.46 54.97 12.45L54.97 12.45L54.97 12.45Q54.93 12.45 54.73 12.45L54.73 12.45L54.73 12.45Q54.52 12.46 54.25 12.46L54.25 12.46L54.25 12.46Q53.98 12.46 53.71 12.46L53.71 12.46L53.71 12.46Q53.43 12.46 53.27 12.46L53.27 12.46ZM62.30 3.47L62.30 3.47L62.30 3.47Q62.64 3.47 62.84 3.64L62.84 3.64L62.84 3.64Q63.03 3.81 63.03 4.10L63.03 4.10L63.03 4.10Q63.03 4.40 62.84 4.58L62.84 4.58L62.84 4.58Q62.64 4.75 62.30 4.75L62.30 4.75L62.30 4.75Q61.95 4.75 61.76 4.58L61.76 4.58L61.76 4.58Q61.57 4.41 61.57 4.10L61.57 4.10L61.57 4.10Q61.57 3.81 61.76 3.64L61.76 3.64L61.76 3.64Q61.95 3.47 62.30 3.47ZM63.01 6.31L63.01 11.40L63.01 11.40Q63.01 11.56 63.07 11.65L63.07 11.65L63.07 11.65Q63.12 11.74 63.25 11.79L63.25 11.79L63.25 11.79Q63.37 11.83 63.56 11.84L63.56 11.84L63.56 11.84Q63.76 11.85 64.04 11.85L64.04 11.85L64.04 12.46L64.04 12.46Q63.86 12.46 63.56 12.46L63.56 12.46L63.56 12.46Q63.26 12.46 62.96 12.46L62.96 12.46L62.96 12.46Q62.66 12.46 62.43 12.45L62.43 12.45L62.43 12.45Q62.19 12.45 62.15 12.45L62.15 12.45L62.15 12.45Q61.76 12.45 61.47 12.46L61.47 12.46L61.47 12.46Q61.17 12.46 60.85 12.46L60.85 12.46L60.85 11.85L60.85 11.85Q61.22 11.85 61.43 11.83L61.43 11.83L61.43 11.83Q61.63 11.81 61.73 11.76L61.73 11.76L61.73 11.76Q61.83 11.72 61.85 11.63L61.85 11.63L61.85 11.63Q61.87 11.55 61.87 11.41L61.87 11.41L61.87 7.20L61.87 7.20Q61.87 7.10 61.81 7.05L61.81 7.05L61.81 7.05Q61.76 7.01 61.65 6.98L61.65 6.98L61.65 6.98Q61.53 6.96 61.34 6.96L61.34 6.96L61.34 6.96Q61.15 6.95 60.89 6.95L60.89 6.95L60.89 6.34L60.89 6.34Q61.47 6.34 61.98 6.34L61.98 6.34L61.98 6.34Q62.49 6.33 63.01 6.31L63.01 6.31ZM64.52 12.46L64.52 11.85L64.52 11.85Q64.91 11.85 65.12 11.84L65.12 11.84L65.12 11.84Q65.33 11.83 65.43 11.79L65.43 11.79L65.43 11.79Q65.54 11.74 65.56 11.68L65.56 11.68L65.56 11.68Q65.58 11.61 65.58 11.50L65.58 11.50L65.58 7.18L65.58 7.18Q65.58 7.10 65.53 7.05L65.53 7.05L65.53 7.05Q65.49 7 65.38 6.98L65.38 6.98L65.38 6.98Q65.26 6.96 65.07 6.96L65.07 6.96L65.07 6.96Q64.87 6.95 64.56 6.95L64.56 6.95L64.56 6.34L64.56 6.34Q65.17 6.34 65.68 6.34L65.68 6.34L65.68 6.34Q66.19 6.33 66.68 6.31L66.68 6.31L66.68 7.27L66.68 7.27Q67.15 6.75 67.75 6.47L67.75 6.47L67.75 6.47Q68.36 6.19 69.04 6.19L69.04 6.19L69.04 6.19Q70.04 6.19 70.57 6.73L70.57 6.73L70.57 6.73Q71.11 7.27 71.11 8.43L71.11 8.43L71.11 11.57L71.11 11.57Q71.11 11.68 71.16 11.74L71.16 11.74L71.16 11.74Q71.20 11.79 71.32 11.82L71.32 11.82L71.32 11.82Q71.43 11.84 71.61 11.84L71.61 11.84L71.61 11.84Q71.80 11.85 72.06 11.85L72.06 11.85L72.06 12.46L72.06 12.46Q71.90 12.46 71.74 12.46L71.74 12.46L71.74 12.46Q71.58 12.46 71.40 12.46L71.40 12.46L71.40 12.46Q71.23 12.46 71.04 12.46L71.04 12.46L71.04 12.46Q70.84 12.46 70.60 12.45L70.60 12.45L70.60 12.45Q70.10 12.45 69.71 12.46L69.71 12.46L69.71 12.46Q69.31 12.46 68.91 12.46L68.91 12.46L68.91 11.85L68.91 11.85Q69.30 11.85 69.51 11.84L69.51 11.84L69.51 11.84Q69.73 11.83 69.82 11.79L69.82 11.79L69.82 11.79Q69.92 11.75 69.94 11.69L69.94 11.69L69.94 11.69Q69.95 11.63 69.95 11.54L69.95 11.54L69.95 8.83L69.95 8.83Q69.95 8.37 69.90 7.99L69.90 7.99L69.90 7.99Q69.85 7.62 69.71 7.38L69.71 7.38L69.71 7.38Q69.57 7.14 69.33 7.02L69.33 7.02L69.33 7.02Q69.08 6.90 68.70 6.90L68.70 6.90L68.70 6.90Q68.33 6.90 68.02 7.02L68.02 7.02L68.02 7.02Q67.72 7.14 67.47 7.30L67.47 7.30L67.47 7.30Q67.23 7.47 67.05 7.66L67.05 7.66L67.05 7.66Q66.87 7.85 66.74 8.01L66.74 8.01L66.74 8.01Q66.72 8.52 66.72 9.05L66.72 9.05L66.72 11.53L66.72 11.53Q66.72 11.66 66.78 11.72L66.78 11.72L66.78 11.72Q66.83 11.79 66.96 11.82L66.96 11.82L66.96 11.82Q67.09 11.85 67.28 11.85L67.28 11.85L67.28 11.85Q67.48 11.85 67.76 11.85L67.76 11.85L67.76 12.46L67.76 12.46Q67.58 12.46 67.41 12.46L67.41 12.46L67.41 12.46Q67.24 12.46 67.06 12.46L67.06 12.46L67.06 12.46Q66.88 12.46 66.67 12.46L66.67 12.46L66.67 12.46Q66.46 12.46 66.21 12.45L66.21 12.45L66.21 12.45Q65.70 12.45 65.30 12.46L65.30 12.46L65.30 12.46Q64.91 12.46 64.52 12.46L64.52 12.46ZM76.04 6.90L76.04 6.90L76.04 6.90Q75.58 6.90 75.20 7.07L75.20 7.07L75.20 7.07Q74.81 7.25 74.54 7.57L74.54 7.57L74.54 7.57Q74.27 7.89 74.13 8.36L74.13 8.36L74.13 8.36Q73.98 8.83 73.98 9.38L73.98 9.38L73.98 9.38Q73.98 9.93 74.13 10.37L74.13 10.37L74.13 10.37Q74.27 10.81 74.54 11.13L74.54 11.13L74.54 11.13Q74.81 11.44 75.20 11.61L75.20 11.61L75.20 11.61Q75.58 11.78 76.06 11.78L76.06 11.78L76.06 11.78Q76.53 11.78 76.91 11.60L76.91 11.60L76.91 11.60Q77.29 11.42 77.56 11.10L77.56 11.10L77.56 11.10Q77.83 10.78 77.98 10.33L77.98 10.33L77.98 10.33Q78.13 9.88 78.13 9.32L78.13 9.32L78.13 9.32Q78.13 8.79 77.98 8.34L77.98 8.34L77.98 8.34Q77.83 7.90 77.56 7.57L77.56 7.57L77.56 7.57Q77.29 7.25 76.90 7.07L76.90 7.07L76.90 7.07Q76.51 6.90 76.04 6.90ZM78.18 7.44L78.18 6.32L78.18 6.32Q78.49 6.33 78.79 6.34L78.79 6.34L78.79 6.34Q79.09 6.35 79.40 6.35L79.40 6.35L79.40 6.35Q79.67 6.35 79.87 6.35L79.87 6.35L79.87 6.35Q80.07 6.34 80.27 6.34L80.27 6.34L80.27 6.95L80.27 6.95Q79.89 6.95 79.68 6.98L79.68 6.98L79.68 6.98Q79.47 7 79.38 7.06L79.38 7.06L79.38 7.06Q79.28 7.12 79.26 7.22L79.26 7.22L79.26 7.22Q79.24 7.31 79.24 7.47L79.24 7.47L79.24 12.04L79.24 12.04Q79.24 13.00 79.01 13.64L79.01 13.64L79.01 13.64Q78.78 14.28 78.35 14.67L78.35 14.67L78.35 14.67Q77.92 15.05 77.31 15.21L77.31 15.21L77.31 15.21Q76.70 15.37 75.93 15.37L75.93 15.37L75.93 15.37Q75.20 15.37 74.55 15.22L74.55 15.22L74.55 15.22Q73.90 15.07 73.34 14.75L73.34 14.75L73.40 13.31L73.40 13.31Q73.41 13.32 73.51 13.32L73.51 13.32L73.51 13.32Q73.58 13.32 73.67 13.32L73.67 13.32L73.67 13.32Q73.77 13.32 73.84 13.31L73.84 13.31L73.84 13.31Q73.93 13.31 74.03 13.30L74.03 13.30L74.03 13.30Q74.09 13.71 74.24 13.98L74.24 13.98L74.24 13.98Q74.40 14.25 74.64 14.40L74.64 14.40L74.64 14.40Q74.88 14.56 75.21 14.63L75.21 14.63L75.21 14.63Q75.53 14.69 75.93 14.69L75.93 14.69L75.93 14.69Q76.36 14.69 76.76 14.58L76.76 14.58L76.76 14.58Q77.15 14.46 77.45 14.22L77.45 14.22L77.45 14.22Q77.75 13.97 77.92 13.58L77.92 13.58L77.92 13.58Q78.10 13.18 78.10 12.61L78.10 12.61L78.10 11.35L78.10 11.35Q77.71 11.89 77.12 12.18L77.12 12.18L77.12 12.18Q76.53 12.46 75.78 12.46L75.78 12.46L75.78 12.46Q75.11 12.46 74.56 12.24L74.56 12.24L74.56 12.24Q74.01 12.02 73.61 11.61L73.61 11.61L73.61 11.61Q73.22 11.21 73.00 10.64L73.00 10.64L73.00 10.64Q72.79 10.07 72.79 9.37L72.79 9.37L72.79 9.37Q72.79 8.67 73.01 8.08L73.01 8.08L73.01 8.08Q73.23 7.49 73.63 7.07L73.63 7.07L73.63 7.07Q74.03 6.65 74.58 6.42L74.58 6.42L74.58 6.42Q75.13 6.19 75.80 6.19L75.80 6.19L75.80 6.19Q76.57 6.19 77.16 6.50L77.16 6.50L77.16 6.50Q77.76 6.82 78.18 7.44L78.18 7.44Z"></path></g><!----><!----></svg>