<svg data-v-423bf9ae="" xmlns="http://www.w3.org/2000/svg" viewBox="0 0 484 90" class="iconLeft"><!----><!----><!----><g data-v-423bf9ae="" id="3d1a1f91-daba-45f5-8401-4013f8ad7580" fill="#0C3D33" transform="matrix(4.739336193000167,0,0,4.739336193000167,107.39336009873401,-1.77724851191779)"><path d="M4.20 13.72L0.55 13.72L0.55 13.26L1.79 12.98L1.79 5.89L0.55 5.63L0.55 5.17L4.20 5.17L4.20 5.63L2.95 5.89L2.95 9.11L7.18 9.11L7.18 5.89L5.94 5.63L5.94 5.17L9.59 5.17L9.59 5.63L8.34 5.89L8.34 12.98L9.60 13.26L9.60 13.72L5.94 13.72L5.94 13.26L7.18 12.98L7.18 9.80L2.95 9.80L2.95 12.98L4.20 13.26L4.20 13.72ZM18.23 13.55L18.23 13.55Q17.46 13.78 16.74 13.78L16.74 13.78L16.74 13.78Q16.45 13.78 16.18 13.59L16.18 13.59L16.18 13.59Q15.90 13.40 15.85 13.08L15.85 13.08L15.51 13.22L15.51 13.22Q14.80 13.52 14.26 13.69L14.26 13.69L14.26 13.69Q13.72 13.86 13.16 13.86L13.16 13.86L13.16 13.86Q12.32 13.86 11.94 13.38L11.94 13.38L11.94 13.38Q11.56 12.91 11.56 12.19L11.56 12.19L11.56 7.70L10.32 7.56L10.32 7.24L12.38 6.72L12.74 6.72L12.74 12.04L12.74 12.04Q12.74 12.54 12.96 12.77L12.96 12.77L12.96 12.77Q13.19 12.99 13.87 12.99L13.87 12.99L13.87 12.99Q14.22 12.99 14.77 12.86L14.77 12.86L14.77 12.86Q15.32 12.73 15.78 12.56L15.78 12.56L15.78 7.70L14.52 7.56L14.52 7.24L16.58 6.72L16.95 6.72L16.95 12.91L18.23 13.16L18.23 13.55ZM22.16 13.87L22.16 13.87Q20.59 13.87 19.80 12.97L19.80 12.97L19.80 12.97Q19.01 12.07 19.01 10.32L19.01 10.32L19.01 10.32Q19.01 8.57 19.78 7.64L19.78 7.64L19.78 7.64Q20.55 6.72 22.01 6.72L22.01 6.72L22.01 6.72Q23.35 6.72 24.00 7.36L24.00 7.36L24.00 7.36Q24.64 7.99 24.64 9.35L24.64 9.35L24.64 9.35Q24.64 9.52 24.61 10.05L24.61 10.05L20.30 10.05L20.30 10.50L20.30 10.50Q20.30 11.73 20.85 12.43L20.85 12.43L20.85 12.43Q21.39 13.13 22.36 13.13L22.36 13.13L22.36 13.13Q22.82 13.13 23.38 13.05L23.38 13.05L23.38 13.05Q23.94 12.96 24.46 12.82L24.46 12.82L24.54 13.26L24.54 13.26Q23.94 13.59 23.41 13.73L23.41 13.73L23.41 13.73Q22.88 13.87 22.16 13.87L22.16 13.87ZM20.33 9.56L23.38 9.42L23.38 9.10L23.38 9.10Q23.38 8.23 23.07 7.82L23.07 7.82L23.07 7.82Q22.76 7.41 22.09 7.41L22.09 7.41L22.09 7.41Q21.20 7.41 20.79 7.90L20.79 7.90L20.79 7.90Q20.38 8.40 20.33 9.56L20.33 9.56ZM32.82 9.20L32.82 9.20Q34.96 9.63 34.96 11.35L34.96 11.35L34.96 11.35Q34.96 12.42 34.13 13.07L34.13 13.07L34.13 13.07Q33.31 13.72 31.88 13.72L31.88 13.72L28.45 13.72L28.45 13.26L29.71 12.98L29.71 5.91L28.45 5.63L28.45 5.17L31.79 5.17L31.79 5.17Q33.28 5.17 33.97 5.72L33.97 5.72L33.97 5.72Q34.66 6.27 34.66 7.20L34.66 7.20L34.66 7.20Q34.66 8.02 34.20 8.53L34.20 8.53L34.20 8.53Q33.73 9.03 32.82 9.20L32.82 9.20ZM31.53 8.96L31.53 8.96Q32.44 8.96 32.95 8.55L32.95 8.55L32.95 8.55Q33.46 8.15 33.46 7.32L33.46 7.32L33.46 7.32Q33.46 6.55 32.98 6.16L32.98 6.16L32.98 6.16Q32.49 5.77 31.74 5.77L31.74 5.77L31.74 5.77Q31.40 5.77 30.87 5.89L30.87 5.89L30.87 8.96L31.53 8.96ZM30.87 13.03L30.87 13.03Q31.25 13.15 31.71 13.15L31.71 13.15L31.71 13.15Q32.59 13.15 33.15 12.70L33.15 12.70L33.15 12.70Q33.71 12.25 33.71 11.28L33.71 11.28L33.71 11.28Q33.71 10.42 33.13 9.98L33.13 9.98L33.13 9.98Q32.55 9.53 31.44 9.53L31.44 9.53L30.87 9.53L30.87 13.03ZM38.96 7.48L38.96 7.48Q38.25 7.48 37.58 7.67L37.58 7.67L37.24 8.88L36.82 8.88L36.58 7.24L36.58 7.24Q37.97 6.72 39.21 6.72L39.21 6.72L39.21 6.72Q40.25 6.72 40.80 7.07L40.80 7.07L40.80 7.07Q41.34 7.42 41.34 8.25L41.34 8.25L41.34 12.91L42.60 13.16L42.60 13.55L42.60 13.55Q41.87 13.78 41.13 13.78L41.13 13.78L41.13 13.78Q40.78 13.78 40.53 13.58L40.53 13.58L40.53 13.58Q40.28 13.38 40.21 13.01L40.21 13.01L40.21 13.01Q39.02 13.87 37.79 13.87L37.79 13.87L37.79 13.87Q37.09 13.87 36.69 13.36L36.69 13.36L36.69 13.36Q36.29 12.84 36.29 12.15L36.29 12.15L36.29 12.15Q36.29 10.53 38.07 10.21L38.07 10.21L40.18 9.83L40.18 8.65L40.18 8.65Q40.18 8.06 39.91 7.77L39.91 7.77L39.91 7.77Q39.65 7.48 38.96 7.48L38.96 7.48ZM38.72 10.68L38.72 10.68Q38.07 10.79 37.79 11.13L37.79 11.13L37.79 11.13Q37.51 11.47 37.51 11.94L37.51 11.94L37.51 11.94Q37.51 13.01 38.53 13.01L38.53 13.01L38.53 13.01Q38.89 13.01 39.33 12.85L39.33 12.85L39.33 12.85Q39.77 12.70 40.18 12.49L40.18 12.49L40.18 10.44L38.72 10.68ZM45.70 7.28L45.70 7.28Q46.19 7.07 46.88 6.90L46.88 6.90L46.88 6.90Q47.57 6.72 48.20 6.72L48.20 6.72L48.20 6.72Q49.03 6.72 49.55 7.08L49.55 7.08L49.55 7.08Q50.06 7.45 50.06 8.25L50.06 8.25L50.06 12.98L51.32 13.33L51.32 13.72L47.75 13.72L47.75 13.33L48.90 12.98L48.90 8.48L48.90 8.48Q48.90 8.11 48.78 7.91L48.78 7.91L48.78 7.91Q48.66 7.71 48.37 7.64L48.37 7.64L48.37 7.64Q48.08 7.56 47.50 7.56L47.50 7.56L47.50 7.56Q47.05 7.56 46.56 7.62L46.56 7.62L46.56 7.62Q46.07 7.69 45.70 7.78L45.70 7.78L45.70 12.98L46.84 13.33L46.84 13.72L43.29 13.72L43.29 13.33L44.53 12.98L44.53 7.70L43.29 7.56L43.29 7.24L45.32 6.72L45.70 6.72L45.70 7.28ZM55.20 13.27L55.20 13.72L51.90 13.72L51.90 13.27L53.17 12.98L53.17 4.54L51.90 4.40L51.90 4.07L54.00 3.54L54.35 3.54L54.35 12.98L55.20 13.27ZM59.44 13.29L59.44 13.72L56.31 13.72L56.31 13.27L56.92 13.03L54.57 10.11L56.64 7.55L55.43 7.25L55.43 6.85L59.02 6.85L59.02 7.25L57.69 7.55L55.76 9.86L58.34 13.01L59.44 13.29ZM61.54 5.60L61.54 5.60Q61.21 5.60 60.96 5.37L60.96 5.37L60.96 5.37Q60.70 5.14 60.70 4.80L60.70 4.80L60.70 4.80Q60.70 4.45 60.96 4.21L60.96 4.21L60.96 4.21Q61.21 3.96 61.54 3.96L61.54 3.96L61.54 3.96Q61.88 3.96 62.13 4.21L62.13 4.21L62.13 4.21Q62.38 4.47 62.38 4.80L62.38 4.80L62.38 4.80Q62.38 5.14 62.13 5.37L62.13 5.37L62.13 5.37Q61.88 5.60 61.54 5.60L61.54 5.60ZM63.38 13.72L59.72 13.72L59.72 13.27L60.97 12.98L60.97 7.70L59.72 7.56L59.72 7.24L61.78 6.72L62.13 6.72L62.13 12.98L63.38 13.27L63.38 13.72ZM66.50 7.28L66.50 7.28Q66.99 7.07 67.68 6.90L67.68 6.90L67.68 6.90Q68.38 6.72 69.01 6.72L69.01 6.72L69.01 6.72Q69.83 6.72 70.35 7.08L70.35 7.08L70.35 7.08Q70.87 7.45 70.87 8.25L70.87 8.25L70.87 12.98L72.13 13.33L72.13 13.72L68.56 13.72L68.56 13.33L69.71 12.98L69.71 8.48L69.71 8.48Q69.71 8.11 69.59 7.91L69.59 7.91L69.59 7.91Q69.47 7.71 69.17 7.64L69.17 7.64L69.17 7.64Q68.88 7.56 68.31 7.56L68.31 7.56L68.31 7.56Q67.86 7.56 67.37 7.62L67.37 7.62L67.37 7.62Q66.88 7.69 66.50 7.78L66.50 7.78L66.50 12.98L67.65 13.33L67.65 13.72L64.09 13.72L64.09 13.33L65.34 12.98L65.34 7.70L64.09 7.56L64.09 7.24L66.12 6.72L66.50 6.72L66.50 7.28ZM75.28 16.20L75.28 16.20Q73.82 16.20 73.33 15.83L73.33 15.83L73.33 15.83Q72.84 15.47 72.84 14.84L72.84 14.84L72.84 14.84Q72.84 14.49 73.03 14.09L73.03 14.09L73.03 14.09Q73.22 13.69 73.65 13.33L73.65 13.33L73.65 13.33Q73.22 13.10 73.22 12.56L73.22 12.56L73.22 12.56Q73.22 12.26 73.44 11.91L73.44 11.91L73.44 11.91Q73.67 11.56 74.09 11.12L74.09 11.12L74.09 11.12Q73.22 10.51 73.22 9.10L73.22 9.10L73.22 9.10Q73.22 8.47 73.51 7.93L73.51 7.93L73.51 7.93Q73.79 7.39 74.37 7.06L74.37 7.06L74.37 7.06Q74.94 6.72 75.77 6.72L75.77 6.72L75.77 6.72Q76.24 6.72 76.60 6.81L76.60 6.81L76.60 6.81Q76.96 6.90 77.29 7.08L77.29 7.08L79.28 6.57L79.28 7.55L77.70 7.55L77.70 7.55Q77.99 7.81 78.15 8.23L78.15 8.23L78.15 8.23Q78.30 8.65 78.30 9.10L78.30 9.10L78.30 9.10Q78.30 10.09 77.67 10.76L77.67 10.76L77.67 10.76Q77.03 11.42 75.61 11.42L75.61 11.42L75.61 11.42Q75.26 11.42 74.95 11.38L74.95 11.38L74.95 11.38Q74.63 11.33 74.63 11.31L74.63 11.31L74.63 11.31Q74.42 11.59 74.34 11.77L74.34 11.77L74.34 11.77Q74.26 11.94 74.26 12.10L74.26 12.10L74.26 12.10Q74.26 12.26 74.38 12.40L74.38 12.40L74.38 12.40Q74.49 12.54 74.69 12.54L74.69 12.54L77 12.54L77 12.54Q78.02 12.54 78.54 12.83L78.54 12.83L78.54 12.83Q79.06 13.12 79.06 13.93L79.06 13.93L79.06 13.93Q79.06 14.49 78.66 15.01L78.66 15.01L78.66 15.01Q78.26 15.53 77.41 15.86L77.41 15.86L77.41 15.86Q76.55 16.20 75.28 16.20L75.28 16.20ZM75.80 10.77L75.80 10.77Q76.54 10.77 76.83 10.34L76.83 10.34L76.83 10.34Q77.13 9.91 77.13 9.10L77.13 9.10L77.13 9.10Q77.13 8.30 76.80 7.84L76.80 7.84L76.80 7.84Q76.47 7.38 75.75 7.38L75.75 7.38L75.75 7.38Q75.01 7.38 74.71 7.83L74.71 7.83L74.71 7.83Q74.41 8.27 74.41 9.10L74.41 9.10L74.41 9.10Q74.41 9.91 74.73 10.34L74.73 10.34L74.73 10.34Q75.04 10.77 75.80 10.77L75.80 10.77ZM75.39 15.50L75.39 15.50Q76.78 15.50 77.41 15.13L77.41 15.13L77.41 15.13Q78.05 14.77 78.05 14.14L78.05 14.14L78.05 14.14Q78.05 13.73 77.82 13.59L77.82 13.59L77.82 13.59Q77.59 13.44 77.07 13.44L77.07 13.44L74.33 13.44L74.33 13.44Q73.86 14.01 73.86 14.55L73.86 14.55L73.86 14.55Q73.86 15.06 74.19 15.28L74.19 15.28L74.19 15.28Q74.51 15.50 75.39 15.50L75.39 15.50Z"></path></g><defs data-v-423bf9ae=""><linearGradient data-v-423bf9ae="" gradientTransform="rotate(25)" id="c4294641-f652-435e-8249-06cc8c96ece8" x1="0%" y1="0%" x2="100%" y2="0%"><stop data-v-423bf9ae="" offset="0%" style="stop-color: rgb(40, 134, 66); stop-opacity: 1;"></stop><stop data-v-423bf9ae="" offset="100%" style="stop-color: rgb(39, 253, 253); stop-opacity: 1;"></stop></linearGradient></defs><g data-v-423bf9ae="" id="acaf6d23-437b-432b-9d71-63df747fdfb9" transform="matrix(1.0227272727272727,0,0,1.0227272727272727,-5.135659131136805,-6.137068141590461)" stroke="none" fill="url(#c4294641-f652-435e-8249-06cc8c96ece8)"><path style="text-indent:0;text-transform:none;block-progression:tb" d="M49.969 6.031c-24.26 0-44 19.74-44 44s19.74 44 44 44 44-19.74 44-44-19.74-44-44-44zm0 4.06c22.1 0 39.94 17.84 39.94 39.94 0 22.1-17.84 39.94-39.94 39.94-22.1 0-39.94-17.84-39.94-39.94 0-22.1 17.84-39.94 39.94-39.94zm14.77 18.924c-.982.108-1.8 1.042-1.78 2.03v13.99H47.97L36.572 29.827a2.054 2.054 0 0 0-2.234-.685 2.054 2.054 0 0 0-1.357 1.903v13.99h-5.184c-1.043.053-1.945 1.048-1.896 2.092.05 1.043 1.04 1.949 2.083 1.905h4.997v4.996h-5.184c-1.046.05-1.954 1.046-1.905 2.093.05 1.046 1.046 1.954 2.092 1.905h4.997v12.99c-.015 1.056.942 2.027 1.998 2.027s2.014-.97 1.999-2.027v-12.99h15.77l10.617 14.177c.5.659 1.435.95 2.22.69a2.053 2.053 0 0 0 1.372-1.877v-12.99h4.996c1.056.014 2.026-.943 2.026-1.999 0-1.055-.97-2.013-2.026-1.999h-4.996v-4.996h4.996c1.056.015 2.028-.942 2.028-1.999 0-1.056-.972-2.014-2.028-1.998h-4.996v-13.99c.024-1.134-1.09-2.154-2.217-2.03zm-27.761 7.994l6.027 8.026h-6.027zm0 12.023h9.025l3.747 4.996H36.978zm13.99 0H62.96v4.996h-8.245zm6.745 8.994h5.247v6.995z" overflow="visible" color="#000"></path></g><!----></svg>