<svg data-v-fde0c5aa="" xmlns="http://www.w3.org/2000/svg" viewBox="0 0 300 300" class="iconAbove"><!----><defs data-v-fde0c5aa=""><!----></defs><rect data-v-fde0c5aa="" fill="#EDF9F6" x="0" y="0" width="300px" height="300px" class="logo-background-square"></rect><defs data-v-fde0c5aa=""><!----></defs><g data-v-fde0c5aa="" id="b120e6c9-44ce-4267-8689-38facfc0cfbb" fill="#0C3D33"><path d=""></path></g><defs data-v-fde0c5aa=""><linearGradient data-v-fde0c5aa="" gradientTransform="rotate(25)" id="8fec537b-c91b-473c-89a7-fbbb4103eb66" x1="0%" y1="0%" x2="100%" y2="0%"><stop data-v-fde0c5aa="" offset="0%" stop-color="#288642" stop-opacity="1"></stop><stop data-v-fde0c5aa="" offset="100%" stop-color="#27FDFD" stop-opacity="1"></stop></linearGradient></defs><g data-v-fde0c5aa="" id="fadc7ddb-d307-41a9-a9ec-85d4f9c4cb08" stroke="none" fill="url(#8fec537b-c91b-473c-89a7-fbbb4103eb66)"><path style="text-indent:0;text-transform:none;block-progression:tb" d="M49.969 6.031c-24.26 0-44 19.74-44 44s19.74 44 44 44 44-19.74 44-44-19.74-44-44-44zm0 4.06c22.1 0 39.94 17.84 39.94 39.94 0 22.1-17.84 39.94-39.94 39.94-22.1 0-39.94-17.84-39.94-39.94 0-22.1 17.84-39.94 39.94-39.94zm14.77 18.924c-.982.108-1.8 1.042-1.78 2.03v13.99H47.97L36.572 29.827a2.054 2.054 0 0 0-2.234-.685 2.054 2.054 0 0 0-1.357 1.903v13.99h-5.184c-1.043.053-1.945 1.048-1.896 2.092.05 1.043 1.04 1.949 2.083 1.905h4.997v4.996h-5.184c-1.046.05-1.954 1.046-1.905 2.093.05 1.046 1.046 1.954 2.092 1.905h4.997v12.99c-.015 1.056.942 2.027 1.998 2.027s2.014-.97 1.999-2.027v-12.99h15.77l10.617 14.177c.5.659 1.435.95 2.22.69a2.053 2.053 0 0 0 1.372-1.877v-12.99h4.996c1.056.014 2.026-.943 2.026-1.999 0-1.055-.97-2.013-2.026-1.999h-4.996v-4.996h4.996c1.056.015 2.028-.942 2.028-1.999 0-1.056-.972-2.014-2.028-1.998h-4.996v-13.99c.024-1.134-1.09-2.154-2.217-2.03zm-27.761 7.994l6.027 8.026h-6.027zm0 12.023h9.025l3.747 4.996H36.978zm13.99 0H62.96v4.996h-8.245zm6.745 8.994h5.247v6.995z" overflow="visible" color="#000"></path></g><!----></svg>