<svg data-v-423bf9ae="" xmlns="http://www.w3.org/2000/svg" viewBox="0 0 NaN NaN" class="iconAbove"><!----><!----><!----><g data-v-423bf9ae="" id="6bfd261b-71c5-4e2f-8042-23b1d7b46ac0" fill="black" transform="matrix(Infinity,0,0,Infinity,0,0)"><path d=""></path></g><!----><g data-v-423bf9ae="" id="205a8203-1116-46f8-89d4-5df3fe856a7b" transform="matrix(1.0227272727272727,0,0,1.0227272727272727,-1.135659131136805,-6.137068141590461)" stroke="none" fill="black"><path style="text-indent:0;text-transform:none;block-progression:tb" d="M49.969 6.031c-24.26 0-44 19.74-44 44s19.74 44 44 44 44-19.74 44-44-19.74-44-44-44zm0 4.06c22.1 0 39.94 17.84 39.94 39.94 0 22.1-17.84 39.94-39.94 39.94-22.1 0-39.94-17.84-39.94-39.94 0-22.1 17.84-39.94 39.94-39.94zm14.77 18.924c-.982.108-1.8 1.042-1.78 2.03v13.99H47.97L36.572 29.827a2.054 2.054 0 0 0-2.234-.685 2.054 2.054 0 0 0-1.357 1.903v13.99h-5.184c-1.043.053-1.945 1.048-1.896 2.092.05 1.043 1.04 1.949 2.083 1.905h4.997v4.996h-5.184c-1.046.05-1.954 1.046-1.905 2.093.05 1.046 1.046 1.954 2.092 1.905h4.997v12.99c-.015 1.056.942 2.027 1.998 2.027s2.014-.97 1.999-2.027v-12.99h15.77l10.617 14.177c.5.659 1.435.95 2.22.69a2.053 2.053 0 0 0 1.372-1.877v-12.99h4.996c1.056.014 2.026-.943 2.026-1.999 0-1.055-.97-2.013-2.026-1.999h-4.996v-4.996h4.996c1.056.015 2.028-.942 2.028-1.999 0-1.056-.972-2.014-2.028-1.998h-4.996v-13.99c.024-1.134-1.09-2.154-2.217-2.03zm-27.761 7.994l6.027 8.026h-6.027zm0 12.023h9.025l3.747 4.996H36.978zm13.99 0H62.96v4.996h-8.245zm6.745 8.994h5.247v6.995z" overflow="visible" color="#000"></path></g><!----></svg>